<svg xmlns="http://www.w3.org/2000/svg" viewBox="0 0 785 1100" preserveAspectRatio="none"><defs><filter id="hair-edge" x="-1%" y="-1%" width="102%" height="102%" color-interpolation-filters="sRGB"><feGaussianBlur stdDeviation="0.35"/></filter></defs><path fill="white" filter="url(#hair-edge)" d="M173 420 L175 423 L177 426 L179 429 L180 432 L181 435 L181 438 L182 441 L182 444 L182 447 L182 450 L182 453 L183 456 L184 459 L185 462 L186 465 L188 468 L190 471 L191 474 L193 477 L195 480 L197 483 L199 486 L200 489 L201 492 L202 495 L203 498 L204 501 L205 504 L206 507 L206 510 L207 513 L208 516 L208 519 L209 522 L210 525 L211 528 L211 531 L212 534 L212 537 L211 540 L211 543 L211 546 L210 549 L210 552 L211 555 L212 558 L214 561 L216 564 L220 567 L229 570 L230 573 L231 576 L231 579 L232 582 L233 585 L233 588 L234 591 L234 594 L235 597 L236 600 L237 603 L237 606 L238 609 L239 612 L240 615 L242 618 L243 621 L244 624 L246 627 L247 630 L249 633 L251 636 L252 639 L254 642 L256 645 L259 648 L261 651 L263 654 L266 657 L268 660 L271 663 L274 666 L277 669 L279 672 L280 675 L281 678 L281 681 L282 684 L282 687 L282 690 L283 693 L283 696 L283 699 L284 702 L284 705 L284 708 L283 711 L282 714 L282 717 L282 720 L281 723 L279 726 L277 729 L271 732 L268 735 L265 738 L262 741 L259 744 L256 747 L254 750 L251 753 L248 756 L246 759 L243 762 L240 765 L237 768 L234 771 L231 774 L228 777 L225 780 L222 783 L218 786 L215 789 L211 792 L207 795 L202 798 L197 801 L191 804 L185 807 L179 810 L173 813 L167 816 L161 819 L155 822 L149 825 L144 828 L138 831 L131 834 L124 837 L117 840 L109 843 L102 846 L94 849 L85 852 L77 855 L69 858 L61 861 L52 864 L45 867 L37 870 L30 873 L23 876 L17 879 L10 882 L4 885 L1 888 L1 891 L1 894 L1 897 L1 900 L1 903 L1 906 L1 909 L1 912 L1 915 L1 918 L1 921 L1 924 L1 927 L1 930 L1 933 L1 936 L1 939 L1 942 L1 945 L1 948 L1 951 L1 954 L1 957 L1 960 L1 963 L1 966 L1 969 L1 972 L1 975 L1 978 L1 981 L1 984 L1 987 L1 990 L1 993 L1 996 L1 999 L1 1002 L1 1005 L1 1008 L1 1011 L1 1014 L1 1017 L1 1020 L1 1023 L1 1026 L1 1029 L1 1032 L1 1035 L1 1038 L1 1041 L1 1044 L1 1047 L1 1050 L1 1053 L1 1056 L1 1059 L1 1062 L1 1065 L1 1068 L1 1071 L1 1074 L1 1077 L1 1080 L1 1083 L1 1086 L1 1089 L1 1092 L1 1095 L1 1098 L0 1100 L785 1100 L783 1098 L783 1095 L783 1092 L783 1089 L783 1086 L783 1083 L783 1080 L783 1077 L783 1074 L783 1071 L783 1068 L783 1065 L783 1062 L783 1059 L783 1056 L783 1053 L783 1050 L783 1047 L783 1044 L783 1041 L783 1038 L783 1035 L783 1032 L783 1029 L783 1026 L783 1023 L783 1020 L783 1017 L783 1014 L783 1011 L783 1008 L783 1005 L783 1002 L783 999 L783 996 L783 993 L783 990 L783 987 L783 984 L783 981 L783 978 L783 975 L783 972 L783 969 L783 966 L783 963 L783 960 L783 957 L783 954 L783 951 L783 948 L783 945 L783 942 L783 939 L783 936 L783 933 L783 930 L783 927 L783 924 L783 921 L783 918 L783 915 L783 912 L783 909 L783 906 L783 903 L783 900 L783 897 L783 894 L783 891 L783 888 L783 885 L783 882 L782 879 L776 876 L770 873 L763 870 L755 867 L748 864 L740 861 L732 858 L724 855 L716 852 L707 849 L699 846 L691 843 L683 840 L675 837 L668 834 L661 831 L654 828 L648 825 L641 822 L635 819 L629 816 L622 813 L616 810 L609 807 L603 804 L597 801 L590 798 L585 795 L581 792 L577 789 L573 786 L570 783 L567 780 L563 777 L560 774 L557 771 L554 768 L551 765 L548 762 L545 759 L543 756 L540 753 L538 750 L536 747 L533 744 L531 741 L529 738 L526 735 L524 732 L521 729 L518 726 L514 723 L510 720 L506 717 L503 714 L500 711 L499 708 L498 705 L497 702 L495 699 L494 696 L494 693 L493 690 L493 687 L493 684 L493 681 L493 678 L494 675 L494 672 L494 669 L496 666 L498 663 L500 660 L503 657 L505 654 L508 651 L510 648 L512 645 L514 642 L516 639 L518 636 L519 633 L521 630 L523 627 L524 624 L525 621 L526 618 L527 615 L528 612 L529 609 L530 606 L531 603 L532 600 L533 597 L534 594 L534 591 L535 588 L535 585 L536 582 L536 579 L537 576 L537 573 L539 570 L542 567 L546 564 L548 561 L550 558 L551 555 L552 552 L552 549 L553 546 L553 543 L553 540 L553 537 L553 534 L553 531 L553 528 L554 525 L554 522 L555 519 L556 516 L557 513 L558 510 L559 507 L560 504 L561 501 L562 498 L564 495 L565 492 L566 489 L568 486 L570 483 L572 480 L573 477 L575 474 L576 471 L577 468 L578 465 L579 462 L580 459 L581 456 L582 453 L582 450 L583 447 L583 444 L583 441 L584 438 L584 435 L586 432 L587 429 L588 426 L589 423 L590 420 L589 420 L590 417 L591 416 L591 415 L592 414 L592 412 L594 410 L594 408 L596 405 L596 403 L597 402 L597 398 L598 397 L598 395 L599 394 L599 391 L600 390 L600 388 L602 385 L602 384 L603 383 L603 382 L604 381 L604 376 L605 375 L605 373 L606 372 L606 370 L607 369 L607 365 L608 364 L608 357 L609 356 L609 337 L608 336 L608 310 L607 309 L607 304 L606 303 L606 296 L605 295 L605 293 L604 292 L604 287 L603 286 L603 284 L601 281 L601 280 L600 279 L600 278 L599 277 L599 276 L598 275 L598 274 L597 273 L597 271 L595 268 L595 267 L593 265 L592 262 L591 261 L591 260 L587 256 L587 255 L584 252 L584 251 L580 247 L580 245 L579 244 L579 243 L577 241 L576 238 L575 237 L575 236 L574 235 L574 234 L571 231 L570 228 L567 225 L567 224 L565 222 L565 221 L562 218 L562 217 L558 213 L558 212 L556 210 L555 210 L554 209 L557 212 L558 215 L557 216 L556 216 L555 215 L554 215 L551 212 L550 212 L542 204 L542 203 L543 202 L544 202 L543 201 L541 201 L540 202 L539 202 L536 199 L536 198 L534 196 L533 196 L532 195 L527 195 L525 193 L522 192 L520 190 L519 190 L517 188 L514 187 L511 184 L510 184 L509 183 L506 183 L504 181 L501 180 L494 173 L493 173 L491 171 L490 171 L489 170 L488 170 L483 166 L482 166 L480 164 L479 164 L472 157 L472 156 L470 156 L467 154 L466 154 L464 152 L463 152 L460 149 L457 148 L456 147 L455 147 L454 146 L453 146 L452 145 L448 145 L447 144 L443 144 L442 143 L437 143 L436 142 L433 142 L432 141 L429 141 L428 140 L425 140 L424 139 L421 139 L420 138 L409 138 L408 137 L393 137 L392 138 L388 138 L387 139 L371 139 L370 140 L366 140 L365 141 L356 141 L355 142 L353 142 L352 143 L350 143 L347 145 L344 145 L341 147 L339 147 L337 149 L335 149 L334 150 L332 150 L330 152 L328 152 L327 153 L325 153 L322 155 L321 155 L320 156 L319 156 L318 157 L317 157 L316 158 L315 158 L310 162 L308 162 L306 164 L303 165 L301 167 L298 168 L297 169 L296 169 L295 170 L294 170 L293 171 L292 171 L291 172 L290 172 L289 173 L288 173 L287 174 L286 174 L285 175 L284 175 L283 176 L282 176 L281 177 L280 177 L279 178 L278 178 L276 180 L273 181 L272 182 L271 182 L270 183 L269 183 L267 185 L264 186 L263 187 L262 187 L260 189 L259 189 L254 194 L253 194 L252 195 L248 195 L245 197 L241 197 L241 198 L245 198 L246 199 L246 200 L244 202 L239 202 L238 203 L236 203 L233 201 L231 201 L230 202 L232 204 L232 205 L231 206 L229 206 L228 205 L225 205 L223 203 L220 202 L219 201 L218 201 L217 200 L216 200 L217 203 L220 205 L220 206 L221 207 L221 208 L220 209 L220 211 L219 212 L218 212 L216 214 L213 215 L212 216 L209 216 L208 217 L207 217 L208 218 L208 220 L204 224 L204 226 L202 228 L198 228 L195 230 L194 230 L193 231 L193 232 L191 234 L191 235 L186 239 L187 240 L187 243 L182 247 L181 247 L181 248 L183 250 L183 252 L182 253 L182 255 L181 256 L181 257 L179 259 L178 262 L177 263 L177 264 L175 266 L174 266 L171 269 L170 269 L168 271 L168 274 L164 279 L163 282 L162 283 L162 285 L161 286 L161 288 L160 289 L160 293 L159 294 L159 306 L160 307 L160 310 L159 311 L159 316 L158 317 L158 332 L157 333 L157 343 L158 344 L158 348 L159 349 L159 354 L160 355 L160 357 L159 358 L159 364 L160 365 L160 373 L161 374 L161 382 L162 383 L162 386 L163 387 L163 389 L164 390 L164 393 L166 396 L166 399 L168 402 L168 405 L169 406 L169 408 L171 411 L171 412 L172 413 L172 415 L173 416 L173 417 L175 419 L175 420Z"/></svg>
